<?xml version="1.0" encoding="utf-8"?>
<svg width="50px" height="50px" viewBox="0 0 50 50" version="1.1" xmlns:xlink="http://www.w3.org/1999/xlink" xmlns="http://www.w3.org/2000/svg">
  <defs>
    <path d="M0 0L50 0L50 50L0 50L0 0Z" id="path_1" />
    <clipPath id="mask_1">
      <use xlink:href="#path_1" />
    </clipPath>
  </defs>
  <g id="Telegram-App-icon">
    <path d="M0 0L50 0L50 50L0 50L0 0Z" id="Background" fill="#FFFFFF" fill-opacity="0" fill-rule="evenodd" stroke="none" />
    <g clip-path="url(#mask_1)">
      <path d="M25 4.16666C13.4941 4.16666 4.16671 13.494 4.16669 24.9999C4.16666 36.5058 13.494 45.8333 24.9999 45.8333C36.5058 45.8334 45.8332 36.506 45.8333 25.0001C45.8334 13.4942 36.506 4.16675 25.0001 4.16666L25 4.16666Z" id="Shape" fill="#29B6F6" stroke="none" />
      <path d="M35.3646 15.625L31.4625 35.5479C31.4625 35.5479 31.2948 36.4583 30.1656 36.4583C29.5656 36.4583 29.2563 36.1729 29.2563 36.1729L20.8042 29.1594L16.6688 27.075L11.3615 25.6635C11.3615 25.6635 10.4167 25.3906 10.4167 24.6094C10.4167 23.9583 11.3886 23.6479 11.3886 23.6479L33.5927 14.8271C33.5917 14.826 34.2709 14.5823 34.7656 14.5833C35.0698 14.5833 35.4167 14.7135 35.4167 15.1042C35.4167 15.3646 35.3646 15.625 35.3646 15.625L35.3646 15.625Z" id="Shape" fill="#FFFFFF" stroke="none" />
      <path d="M23.9583 31.776L20.3896 35.2906C20.3896 35.2906 20.2344 35.4104 20.0271 35.4156C19.9552 35.4177 19.8781 35.4062 19.799 35.3708L20.8031 29.1573L23.9583 31.776L23.9583 31.776Z" id="Shape" fill="#B0BEC5" stroke="none" />
      <path d="M31.1427 18.9542C30.9667 18.725 30.6417 18.6833 30.4125 18.8573L16.6667 27.0833C16.6667 27.0833 18.8604 33.2208 19.1948 34.2833C19.5302 35.3469 19.799 35.3719 19.799 35.3719L20.8031 29.1583L31.0448 19.6833C31.274 19.5094 31.3167 19.1833 31.1427 18.9542L31.1427 18.9542Z" id="Shape" fill="#CFD8DC" stroke="none" />
    </g>
  </g>
</svg>