<?xml version="1.0" encoding="utf-8"?>
<svg width="41px" height="41px" viewBox="0 0 41 41" version="1.1" xmlns:xlink="http://www.w3.org/1999/xlink" xmlns="http://www.w3.org/2000/svg">
  <g id="Instagram-icon">
    <path d="M11.9008 0C5.34676 0 0 5.34676 0 11.9008L0 29.0992C0 35.6532 5.34676 41 11.9008 41L29.0992 41C35.6532 41 41 35.6532 41 29.0992L41 11.9008C41 5.34676 35.6532 0 29.0992 0L11.9008 0ZM11.9008 3.15385L29.0992 3.15385C33.947 3.15385 37.8461 7.04688 37.8461 11.9008L37.8461 29.0992C37.8461 33.947 33.9531 37.8462 29.0992 37.8462L11.9008 37.8462C7.05303 37.8462 3.15384 33.9531 3.15384 29.0992L3.15384 11.9008C3.15384 7.05304 7.04687 3.15385 11.9008 3.15385L11.9008 3.15385ZM32.3269 6.30769C31.021 6.30769 29.9615 7.36719 29.9615 8.67308C29.9615 9.97897 31.021 11.0385 32.3269 11.0385C33.6328 11.0385 34.6923 9.97897 34.6923 8.67308C34.6923 7.36719 33.6328 6.30769 32.3269 6.30769L32.3269 6.30769ZM20.5 9.46155C14.4202 9.46155 9.46152 14.4202 9.46152 20.5C9.46152 26.5798 14.4202 31.5385 20.5 31.5385C26.5798 31.5385 31.5384 26.5798 31.5384 20.5C31.5384 14.4202 26.5798 9.46155 20.5 9.46155L20.5 9.46155ZM20.5 12.6154C24.8735 12.6154 28.3846 16.1265 28.3846 20.5C28.3846 24.8735 24.8735 28.3846 20.5 28.3846C16.1265 28.3846 12.6154 24.8735 12.6154 20.5C12.6154 16.1265 16.1265 12.6154 20.5 12.6154L20.5 12.6154Z" id="Shape" fill="#FFFFFF" fill-rule="evenodd" stroke="none" />
  </g>
</svg>